/* XPM */
static char *_dedab04fac2497dd437e3d57c15fa14[] = {
/* columns rows colors chars-per-pixel */
"128 128 79 1 ",
"  c xx",
". c #010001",
"X c #0F0001",
"o c #1B0701",
"O c gray12",
"+ c #230B01",
"@ c #2B1701",
"# c #2B1702",
"$ c #28200C",
"% c #372301",
"& c #373701",
"* c #373702",
"= c #3F3301",
"- c #232323",
"; c #2F2F2F",
": c gray20",
"> c gray23",
", c #424201",
"< c #434301",
"1 c #434302",
"2 c #444402",
"3 c #4B4301",
"4 c #4E4E01",
"5 c #4F4F01",
"6 c #4E4E02",
"7 c #535301",
"8 c #5F5F01",
"9 c #5F5F02",
"0 c #606001",
"q c #606002",
"w c #6A6A01",
"e c #6B6B01",
"r c #6A6A02",
"t c #6B6B02",
"y c #767601",
"u c #777701",
"i c #434343",
"p c #4B4B4B",
"a c gray34",
"s c #5B5B5B",
"d c #676767",
"f c #727272",
"g c gray45",
"h c gray50",
"j c #878701",
"k c #878702",
"l c #939301",
"z c #939302",
"x c #949402",
"c c #9F9F01",
"v c #AEAE01",
"b c #AFAF01",
"n c #AFAF02",
"m c #BBBB01",
"M c #C7C701",
"N c #D6D601",
"B c #D7D701",
"V c #E3E301",
"C c #EEEE01",
"Z c #EFEF01",
"A c #FFFF01",
"S c #FFFF02",
"D c #FFFF57",
"F c #980087",
"G c #970088",
"H c #980088",
"J c #990088",
"K c #980089",
"L c #8E8E8E",
"P c gray56",
"I c #9B9B9B",
"U c #AAAAAA",
"Y c gray67",
"T c #BBBBBB",
"R c #C3C3C3",
"E c LightGray",
"W c #DFDFDF",
"Q c #EFEFEF",
"! c white",
/* pixels */
"                                                                                                                                ",
"                                                                                                                                ",
"                                                                                                                                ",
"                                                                                                                                ",
"                                                                                                                                ",
"                                                                                                                                ",
"                                                                                                                                ",
"                                                                                                                                ",
"                                                                                                                                ",
"                                                                                                                                ",
"                                                                                                                                ",
"                                                                                                                                ",
"                                                                           ejl                                                  ",
"                                                DDABb                     bbbmBZ                                                ",
"                                              bDAVmjlu                    l81elbZ                                               ",
"                                             mDAMb8&8u                    l15&5jBZ                                              ",
"                                            BDB8&@@@85       lZ!!!A       m8...%ubV                                             ",
"                                            ZZm&@X@=u1      jM!AAm5cMM    mu....elBm                                            ",
"                                           1VVl8+X@3j1      lMAAZZZm!VM   bjX..+3lVm1                                           ",
"                                           lVbc8%+@8b8      lMZZBu33      mb+.++5ubVl1                                          ",
"                                           mVcm8&@+7bu1     lMZVM.e.     KMb@.@@5ucAm1&                                         ",
"                                           MVcm8==+=bmu1    jMDZM5.c     %Zb%.@&ujbAMe&                                         ",
"                                          jBVcc8=%%+jBmbBbmVAADAZMbjmBAABBZl3@@5luBABj&                                         ",
"                                          jVVcc8=%o+jVMMZZZA!!DAAABmBVbmMBBj3%&&ujMAVj&                                         ",
"                                          jVBcj8==@+=mmMZA!!!!!DAZZZZBbeuje3&&55ecMAVj&                                         ",
"                                          jVBjcB15%@o%==AAADDDDZVBBBBMc5@@@=855eecmAVj&                                         ",
"                                          jVBjcm1u%1@@o=AAADDAZVMMMMbbj1@%5e85ueeclAVj&                                         ",
"                                          jVBjjcec%u1@@@AAAAAZVmlmmmbce@@=18u&ceccjAVj&                                         ",
"                                          eBVmccee8u11=1BAAAVMcu5cccue5@=151u1jeMclABu&                                         ",
"                                          eBVmccecb8e581bZAABmllujju88&@&51e8&ceVcmABe&                                         ",
"                                          emVMccecb8c851uVAABmljujue51@@&53c8eceAjMAme                                          ",
"                                          1lVBcccMcu1&u8&bABbcle8e85=@@  u&1ujMjMcBAl1                                          ",
"                                          1jABcjBMbleK&5@uAmblu85511%@   1%eljMjccBAj1                                          ",
"                                           eAVcjBMeb  &1@uAuuu8551==%@    %jjjMbMbVAe&                                          ",
"                                           eABBcBB&      @Ab8%%%%%%o18      8cbMAbBme&                                          ",
"                                           8ABBBABK      @Zbe&@%&oooul       cbBAmBc8&                                          ",
"                                           5VAMcAB        Vc81@&&%o5lB       cbAVmAu5                                           ",
"                                           1jVAcVb        lc11&&%&1jMl       cbVMAV11                                           ",
"                                            8mAbbb        ece1&%%%&cMe       cbmZAm1                                            ",
"                                            1jVBcb        1cj1%%%%%lM2       cbmAVj                                             ",
"                                             &eAZM        jc55%%%%%%BF       cMZVe%                                             ",
"                                             +%VAZ       8c55&%%%%%%B8       bZAj%+                                             ",
"                                              1bVA     81lZB5%%%%%uBBble     mAVe+                                              ",
"                                               &em   ll8l%ZMM5eMD58eBcBVbll  BVe&                                               ",
"                                               &&e elbb8mlZVMeeDDDDDA55bebbleVe&                                                ",
"                                                &&leele8Z8elleMMMMMMMMB58eleee15                                                ",
"                                               8ebbeee8lb88lelbbbbbbbblbl8eeeube8                                               ",
"                                              ebbebAAllAVM8e8lllllllllMVAllAAbebbe                                              ",
"                                             FeMbbAVMbVVMl88ellllllllelMVVbMVAbbbeK                                             ",
"                                             l8eebMlAVbe8l88eeeeeeeew8l8ebVAlMbee8l5                                            ",
"                                            ebMbAVbMVee8eM888888888888Me8eeVMbVAlMbeq                                           ",
"                                           bblMVVAVleeell85555555551258lleeelVAVlMlbbe                                          ",
"                                          MMbleVDVbeeeebl85111111122*58lbeeeebVDlelbMM                                          ",
"                                         ebbeelAMle88lbl85e&&&&&&&***e58lbl88elMMleebbe                                         ",
"                                        8eeeeMAMlee8l888858&&&&&&****858888l8eelMAMeeee8                                        ",
"                                       8ellMMbAeellMM5e8&&&$$$$$#$$*****8e5MMlleMAbMMlle8                                       ",
"                                      Mb8MAMlAl8l88588555&$$$$$&&$$$$&&55588588lllAlMAM8bM                                      ",
"                                     eMbeMMMAMA8l858885&&$$$$$&&&5$$$$$&&588858l8AMAMMMebMe                                     ",
"                                    8elleblMbMMe8ee&5&$$$$$$$&&&&&&$$$$$$$&5&ee8lMMbMlbelle8                                    ",
"                                   qeeMAMbMAbbelee851$$$$$$$&&&&&&&&$$$$$$$158eeeebbAMbMAMeeq                                   ",
"                                   lblMMleAMVMlle88&$$$$$$$55588855$$$$$$$$$&88eblMVMAelMMlbl                                   ",
"                                   bMebbelVMMA8e881$$$$$$$558888885$$$$$$$$$$188e8AMMVlebbeMb                                   ",
"                                  Klll58lAMllM8e8&$$$$$$$8888eee8$$$$$$$$$$$$$&8l8MllMAl85lllK                                  ",
"                                  le8MVMMAAAele85&$$$$$$888eeeee5$$$$$$D$$$$$$$5eeleAAAMMVM8el                                  ",
"                                  ll8MllAVMMM8l5&$$$$$$88elllll$$$$$$Al8l$$$$$$&el8MMMVAllM8ll                                  ",
"                                  Mb5blbAMbMM8e&$$$$$$8eelllll5$$$$$$lee8A$$$$$&5e8MMbMAblb5bM                                  ",
"                                 xll8elbMbbMe58$$$$$$88lllllll5$$$$Alllll8l$$$$$&85eMbbMble8llx                                 ",
"                                 8bl88lbblbbe88$$$$$$88llllllAl$$$$lllllle8M$$$$&88ebblbbl88lb9                                 ",
"                                 8bb85ll88le8e5$$$$$$$5ellllllll5Mlllllllll8l$$$&5e8el88ll58bb9                                 ",
"                                 elb858l88bMel5$$$$$$$$8ellllllAllllllllllle88$$&5leMb88l858ble                                 ",
"                                 r8l88AAAllbll$$$lM$$$$$5ellllllllllll5llllle88$$$llbllAAA88l8e                                 ",
"                                 9el8lMMM8elbe$$8llM$$$$$8ellllllllll5$5lllll885$$eble8MMMl8le8                                 ",
"                                 Ke8AAbVMVAbe8&lllllM$$$$$5ellllllll5$$$$lllle88&&8ebAVMVbAA8eK                                 ",
"                                  5eAVlVblAM885llllllM$$$$$8ellllllA5$$$$5llle88&588MAlbVlVAe5                                  ",
"                                  8ebleVbbl8ee$$5lllllM$$$$Mllllllllll$$$$$lle85$$ee8lbbVelbe8                                  ",
"                                  l8lleMbb55le$$$llllllA$$$llllllllllAl$$$$5l88$$$el55bbMell8l                                  ",
"                                  bl88ebMAAlll8$$$5lllllMAllllll8lllllll$$$$$5$$58lllAAMbe88lb                                  ",
"                                  lle88bAMAAee8$$$$llllllllllll55elllllAl$$$$$$$58eeAAMAb88ell                                  ",
"                                  bblAleVbbbbVl$$$$$5lllllllll5$$58lllllll$$$$$$8lVbbbbVelAlbb                                  ",
"                                  bblAeeVbblbbe8$$$$$llllllll5$$$$lllllllAl$$$$$5ebblbbVeeAlbb                                  ",
"                                  8ee8leMAVMeee5$$$$$$5lllll5$$$$M8llllll5$$$$$$8eeeMVAMel8ee8                                  ",
"                                  le88llbAMbell88$$$$$$llll5$$$$$llllllll$$$$$$8ellebMAbll88el                                  ",
"                                  lbe8lMeMllbM5ll$$$$$$$5l5$$$$Alllllll5$$$$$$$le5MbllMeMl8ebl                                  ",
"                                  ebe8VAMlVbbM5Mb8$$$$$$$5$$$$$llllllll$$$$$$$8be5MbbVlMAV8ebe                                  ",
"                                   85&AVllbb8&8lbe8$$$$$$$$$$Alllllll5$$$$$$$8ebb8&8bbllVA&58                                   ",
"                                   8&&bAlleb85ebble8$$$$$$$$$llllllll$$$$$$$8elbMe58bellAb&&8                                   ",
"                                    e858be88leeleell8$$$$$$$5llllll5$$$$$$$8lleeeeel88eb858e                                    ",
"                                    ee588858MAlbAb8l5$$$$$$$$llllll$$$$$$$$5l8bAllAM858885ee                                    ",
"                                     &eeeebebAlMMAb8ee8$$$$$$$5ll5$$$$$$$8ee8bAMblAbebeeee&                                     ",
"                                     &8llee8e8Abbbebb8858le8$$$55$$88eell88bbebbVA8e8eell8                                      ",
"                                      8lbl88lelAMblMMee81lbee$$55$8llbMMbeeMMlbMAlel88lbl8                                      ",
"                                       5le55ebeeMMllbMl88elMMMMebMMMMMMl8lMbllMMeebe55el&                                       ",
"                                        8555lMleeAMlllbbb8ebMMbbVDDDDDVlbblllMAeelMl5558                                        ",
"                                         &888lllleeAAbAVb18lblbVVVVVVVMbVAbAAeel8ll888&                                         ",
"                                          85858bleelVAVVl81lleMMMMMMMMblVVAVleele85858                                          ",
"                                           8e85AMlel88lMM81ellbbbbbbbbeMMl88lelMb58e8                                           ",
"                                            885lbe8ll8888888ellllllllle8888ll8eb8588                                            ",
"                                             &5le5&AMll558818lllllllll855llMA&5e51&                                             ",
"                                              &ee85bAMl&55518eeeeeeeee11&lMAb58e8&                                              ",
"                                                &&&&&&&55&&888888888881&&&&&&&&&                                                ",
"                                                 g&8&&&&&&&88eeeeeeeee1&&5&58&&O                                                ",
"                                                 gYT&&&&&&&558888888851&&&&O--OO-                                               ",
"                                                 gIYY&&&&&&555555555551&&&&---O;;-                                              ",
"                                                GYYYTEWWWE&&&&&&&&&&&&spp>:-----;;-                                             ",
"                                               YYYTTTEQWWEYIIIIIIPggddssp>:;-----;;--                                           ",
"                                             YYTRRTYTEQETYYIIIIIPPgggdssp>:;------;;;-                                          ",
"                                            YRRTTTYTEQEETYYYIIIIPPggddssp>::-------;;;--                                        ",
"                                          YRRTTYTYEEQEETTYYYIIIIPPggddssp>>::-------O;;;-                                       ",
"                                        YYTYTTYYYWWEEETTTYYYIIIIPhhggdsspi>:::---------;;;;                                     ",
"                                     YYYTTTTYYYYWWWWEETTTYYYIIIIPPhgddsspi>:::;---------;;;;-                                   ",
"                                   YYTRRTTTYYYQQQWWWEEETTYYYIIIIPPhgddsspi>>::;-----------;;;--                                 ",
"                                 YYRRTTTYYYTEQQQQWWWWEETTYYYIIIIIPPgggdsspi>>:;;------------;;;-                                ",
"                               PYRRTTYTYYYYTEQQQQQWWWEEETTYYYIIIIIPPgggdsspii>::;-------------;;;-                              ",
"                              PsPYTTYYYYIYYTQQQQQQWWWEEETTTYYYIIIIPPPPggdssppi>>:;-------------;---                             ",
"                              gssPIYYYYYYYTTQQQQWWWWEEERTTTYYYIIIIIIPPPggdssspii>:;;-----------OOO-::>>>>iiiiii                 ",
"                              gssdgIYYYYYPTEEQQWEEEEEERRTTTYYYYIIIIIIPPPggdsssppi>:;----------OOOO-::::>>iiiiiiiippp            ",
"                              gssdggPIIIYYYTEEWEEEEEERTTTTYYYYYIIIIIIPPPggddsssppi>:;-------OOOOOO-;;;;::>>>>>>iiiiipp          ",
"                              gssdggPPIIYYYYTEEETERRRTTTTYYYYYIIIIIIPPPPggddssspppi;;-----OOOOOOOO-;;;;:::>>>>>iiiiiipp         ",
"                               ssdggPPPIIIYYTTEEETYTTYYYTYYYYYIIIIIPPPPhggdddspppp>:;----OOOOOOOOO-;;;;;;;:::>>>>>iiiiii        ",
"                               ssdggPPPPIIIIYYTQEERRRTYYYYYYIIIIIIIPPPhgddddsspppa>:;----O-OOOOOO--;;;;;;;;::>>>>>>iiiiii       ",
"                                sdggPPPPIIIIIIYQQQQEEETTTTTYYYYIIIIIIPPgggggsssssa>:;----OOOOOOO--;;;;;;;;;::>>>>>>iiiii        ",
"                                gdggPPPPIIIIIIYYQQQQQQQERRRRTYYYYYIIIIIPPPPPPgddsi>:;----OOOOO---;;;;;;;;;;::>>>>>iiiipi        ",
"                                  ggPPPPIYYIIIYYEEEEERTTRTTTYYYTTIIIIIIPPPPPggggsi>:;----OOO---;;;;;;;;:::::>>>>>iiiiii         ",
"                                    PPPPIIIIIIYYRRRRRTTTTTTYYIITTIIIIIPPPgggdggsii>:;----O---;;;;;;;;;:::::>>>>>iiiipii         ",
"                                      PPIIIIYYYYYRRRRRRTYTTYYIIYYYIIIIPPPgggdggsi>>;;------;;;;::::::>>>>>>>>iiiiiippp          ",
"                                        PPIIIIYYYRTRTYTTYTTYYIIYYIIIIPPPPgggddp>>>>;;----;:::::>>>>>>>iiiiiiiiiippipp           ",
"                                           ggPPIIYYTYIYYIIIIIIIIIIPPPPPgggggsssp::;;--;::::>>iiiiiiiipppppppppppppp             ",
"                                             ssgIIIIIIIIPPggggggggggggggssdspi>::;;;;;;::::>>iiiiiiiippppppppppppK              "
};
